; OM File Header - Saved 2009/10/26 10:58:39
; (6.0011 :patc (om-make-point 180 11) (om-make-point 50 50) (om-make-point 500 400) "" 183 0 nil "2009/10/26 10:58:33")
; End File Header
(in-package :om)(load-lib-for (quote ("OMCS" "OMRC")))(setf *om-current-persistent* (om-load-patch1 "rc tutorial-01b" (quote ((om-load-boxcall (quote bastype) "aux" (quote t) (quote nil) (om-make-point 220 231) (om-make-point 26 28) 88 "88" nil) (om-load-editor-box1 "POLY" (quote poly) (quote ((om-load-inputfun (quote input-funbox) "objs" "SELF" nil) (om-load-inputfun (quote input-funbox) "VOICES" "VOICES" (list (let ((newobj (when (find-class (quote voice) nil) (make-instance (quote voice) :tree (quote (2 (((4 4) (1 (1 (1 -2 1 1)) 1 1)) ((4 4) (1 (1 (1 2 1 1)) -1 1))))) :chords (load-obj-list-from-save (quote ((let ((thechord (make-instance (quote chord) :lmidic (quote (6000)) :ldur (quote (1000)) :lvel (quote (100)) :loffset (quote (0)) :lchan (quote (1))))) (load-port-info thechord (quote (0))) thechord) (let ((thechord (make-instance (quote chord) :lmidic (quote (6000)) :ldur (quote (200)) :lvel (quote (100)) :loffset (quote (0)) :lchan (quote (1))))) (load-port-info thechord (quote (0))) thechord) (let ((thechord (make-instance (quote chord) :lmidic (quote (6000)) :ldur (quote (200)) :lvel (quote (100)) :loffset (quote (0)) :lchan (quote (1))))) (load-port-info thechord (quote (0))) thechord) (let ((thechord (make-instance (quote chord) :lmidic (quote (6000)) :ldur (quote (200)) :lvel (quote (100)) :loffset (quote (0)) :lchan (quote (1))))) (load-port-info thechord (quote (0))) thechord) (let ((thechord (make-instance (quote chord) :lmidic (quote (6000)) :ldur (quote (1000)) :lvel (quote (100)) :loffset (quote (0)) :lchan (quote (1))))) (load-port-info thechord (quote (0))) thechord) (let ((thechord (make-instance (quote chord) :lmidic (quote (6000)) :ldur (quote (1000)) :lvel (quote (100)) :loffset (quote (0)) :lchan (quote (1))))) (load-port-info thechord (quote (0))) thechord) (let ((thechord (make-instance (quote chord) :lmidic (quote (6000)) :ldur (quote (1000)) :lvel (quote (100)) :loffset (quote (0)) :lchan (quote (1))))) (load-port-info thechord (quote (0))) thechord) (let ((thechord (make-instance (quote chord) :lmidic (quote (6000)) :ldur (quote (200)) :lvel (quote (100)) :loffset (quote (0)) :lchan (quote (1))))) (load-port-info thechord (quote (0))) thechord) (let ((thechord (make-instance (quote chord) :lmidic (quote (6000)) :ldur (quote (400)) :lvel (quote (100)) :loffset (quote (0)) :lchan (quote (1))))) (load-port-info thechord (quote (0))) thechord) (let ((thechord (make-instance (quote chord) :lmidic (quote (6000)) :ldur (quote (200)) :lvel (quote (100)) :loffset (quote (0)) :lchan (quote (1))))) (load-port-info thechord (quote (0))) thechord) (let ((thechord (make-instance (quote chord) :lmidic (quote (6000)) :ldur (quote (200)) :lvel (quote (100)) :loffset (quote (0)) :lchan (quote (1))))) (load-port-info thechord (quote (0))) thechord) (let ((thechord (make-instance (quote chord) :lmidic (quote (6000)) :ldur (quote (1000)) :lvel (quote (100)) :loffset (quote (0)) :lchan (quote (1))))) (load-port-info thechord (quote (0))) thechord)))) :tempo (quote ((1/4 60) nil)) :legato 100 :ties (quote (nil nil nil nil nil nil nil nil nil nil nil nil)))))) (load-port-info newobj (quote (((0) ((0) nil (0) (0)) (0) (0)) ((0) ((0) (0) (0) (0)) nil (0))))) (init-mus-color newobj (quote nil)) (set-extra-pairs newobj (quote nil)) (set-patch-pairs newobj (quote nil)) (set-tonalite newobj nil) newobj))))) (om-make-point 61 388) (om-make-point 397 116) (if (find-class (quote poly) nil) (let ((newobj (make-instance (quote poly) :voices (list (let ((newobj (when (find-class (quote voice) nil) (make-instance (quote voice) :tree (quote (5 (((4 4) ((1 (1 1)) 1 2)) ((4 4) (4)) ((4 4) (4)) ((4 4) (1 3)) ((4 4) (1.0 (1 (1 -1)) -2))))) :chords (load-obj-list-from-save (quote ((let ((thechord (make-instance (quote chord) :lmidic (quote (6000)) :ldur (quote (338)) :lvel (quote (100)) :loffset (quote (0)) :lchan (quote (1))))) (load-port-info thechord (quote (nil))) thechord) (let ((thechord (make-instance (quote chord) :lmidic (quote (6000)) :ldur (quote (338)) :lvel (quote (100)) :loffset (quote (0)) :lchan (quote (1))))) (load-port-info thechord (quote (nil))) thechord) (let ((thechord (make-instance (quote chord) :lmidic (quote (6000)) :ldur (quote (675)) :lvel (quote (100)) :loffset (quote (0)) :lchan (quote (1))))) (load-port-info thechord (quote (nil))) thechord) (let ((thechord (make-instance (quote chord) :lmidic (quote (6000)) :ldur (quote (1350)) :lvel (quote (100)) :loffset (quote (0)) :lchan (quote (1))))) (load-port-info thechord (quote (nil))) thechord) (let ((thechord (make-instance (quote chord) :lmidic (quote (6000)) :ldur (quote (2700)) :lvel (quote (100)) :loffset (quote (0)) :lchan (quote (1))))) (load-port-info thechord (quote (nil))) thechord) (let ((thechord (make-instance (quote chord) :lmidic (quote (6000)) :ldur (quote (2700)) :lvel (quote (100)) :loffset (quote (0)) :lchan (quote (1))))) (load-port-info thechord (quote (nil))) thechord) (let ((thechord (make-instance (quote chord) :lmidic (quote (6000)) :ldur (quote (675)) :lvel (quote (100)) :loffset (quote (0)) :lchan (quote (1))))) (load-port-info thechord (quote (nil))) thechord) (let ((thechord (make-instance (quote chord) :lmidic (quote (6000)) :ldur (quote (2025)) :lvel (quote (100)) :loffset (quote (0)) :lchan (quote (1))))) (load-port-info thechord (quote (nil))) thechord) (let ((thechord (make-instance (quote chord) :lmidic (quote (6000)) :ldur (quote (338)) :lvel (quote (100)) :loffset (quote (0)) :lchan (quote (1))))) (load-port-info thechord (quote (nil))) thechord)))) :tempo (quote ((1/4 88) nil)) :legato 99 :ties (quote (nil nil nil nil nil nil nil nil nil)))))) (load-port-info newobj (quote ((((nil) (nil)) (nil) (nil)) ((nil)) ((nil)) ((nil) (nil)) ((nil) ((nil) nil) nil)))) (init-mus-color newobj (quote nil)) (set-extra-pairs newobj (quote nil)) (set-patch-pairs newobj (quote nil)) (set-tonalite newobj nil) newobj)) :from-file t))) (load-port-info newobj (quote (((((nil) (nil)) (nil) (nil)) ((nil)) ((nil)) ((nil) (nil)) ((nil) ((nil) nil) nil))))) (init-mus-color newobj (quote nil)) (set-extra-pairs newobj (quote nil)) (set-patch-pairs newobj (quote nil)) (set-tonalite newobj nil) newobj)) nil nil (pairlis (quote (scale microplay obj-mode palette-mode approx fontsize staff cmnpref deltapict outport inport zoom notechancolor? grillestep mode winsize winpos show-stems)) (list nil nil 0 0 2 24 (list (quote g)) (let ((newobj (make-instance (quote edition-values)))) (setf (paper-size newobj) (om-make-point 600 800)) (setf (top-margin newobj) 2) (setf (left-margin newobj) 1) (setf (right-margin newobj) 1) (setf (bottom-margin newobj) 1) (setf (orientation newobj) nil) (setf (scale newobj) nil) (setf (system-space newobj) (quote (1))) (setf (line-space newobj) 1) (setf (title newobj) nil) (setf (show-title? newobj) nil) (setf (show-page? newobj) nil) (setf (sheet-id newobj) nil) (setf (page-mode newobj) nil) newobj) (om-make-point 0 0) 0 0 1 nil 1000 0 18350450 2621450 (quote t))) t nil nil nil) (om-load-boxcall (quote bastype) "aux11" (quote t) (quote nil) (om-make-point 117 107) (om-make-point 20 28) 9 "9" nil) (om-load-boxcall (quote bastype) "t1" (quote t) (quote nil) (om-make-point 267 252) (om-make-point 59 28) (quote rc::voice) "rc::voice" nil) (om-load-boxcall (quote bastype) "aux2" (quote t) (quote nil) (om-make-point 174 24) (om-make-point 133 28) (list (list 1) (list 1/2) (list 1/4) (list 1/8)) "((1) (1/2) (1/4) (1/8))" nil) (om-load-boxcall (quote genfun) "DECODE-ENGINE1" (quote rc::decode-engine) (quote ((om-load-inputfun (quote input-funbox) "from engine" "SOL" nil) (om-load-inputfun (quote input-funbox) "bpm" "TEMPO" 60) (om-load-inputfunmenu1 (quote input-funmenu) "format" "OUTPUT" (quote rc::voice) (list (list "poly-list" (quote (quote rc::poly))) (list "voice-list" (quote (quote rc::voice))) (list "simple" (quote (quote rc::simple))))))) (om-make-point 195 289) nil nil nil nil 1) (om-load-boxcall (quote genfun) "VOICE-DOMAIN1" (quote rc::voice-domain) (quote ((om-load-inputfun (quote input-funbox) "timesigns" "TIMESIGN-LIST" nil) (om-load-inputfun (quote input-funbox) "layer1" "RHYTHMCELL-LIST1" (list (list 1) (list 1/2) (list 1/4) (list 1/8))))) (om-make-point 139 55) nil nil nil nil 1) (om-load-boxcall (quote genfun) "PMC-ENGINE1" (quote omcs::pmc-engine) (quote ((om-load-inputfun (quote input-funbox) "s-space" "S-SPACE" nil) (om-load-inputfun (quote input-funbox) "rules" "RULES" nil))) (om-make-point 137 211) nil nil nil nil 1) (om-load-boxcall (quote genfun) "DOMAINS->PMC1" (quote rc::domains->pmc) (quote ((om-load-inputfun (quote input-funbox) "number of variables" "N-VAR" 5) (om-load-inputfun (quote input-funbox) "voice-domain" "VOICE0" nil))) (om-make-point 123 140) nil nil nil nil 1))) (quote ((5 0 1 1 nil 0) (7 0 5 0 nil 0) (0 0 5 1 nil 0) (3 0 5 2 nil 0) (4 0 6 1 nil 0) (8 0 7 0 nil 0) (2 0 8 0 nil 0) (6 0 8 1 nil 0))) nil 6.04))
