; OM File Header - Saved 2009/10/26 10:58:39
; (6.0011 :patc (om-make-point 65 9) (om-make-point 50 50) (om-make-point 500 400) "" 183 0 nil "2009/10/26 10:58:33")
; End File Header
(in-package :om)(load-lib-for (quote ("OMCS" "OMRC")))(setf *om-current-persistent* (om-load-patch1 "rc tutorial-01a" (quote ((om-load-boxcall (quote bastype) "aux1" (quote t) (quote nil) (om-make-point 77 155) (om-make-point 20 28) 9 "9" nil) (om-load-boxcall (quote bastype) "t" (quote t) (quote nil) (om-make-point 188 287) (om-make-point 66 28) (quote rc::simple) "rc::simple" nil) (om-load-boxcall (quote bastype) "aux" (quote t) (quote nil) (om-make-point 119 64) (om-make-point 133 28) (list (list 1) (list 1/2) (list 1/4) (list 1/8)) "((1) (1/2) (1/4) (1/8))" nil) (om-load-boxcall (quote genfun) "DECODE-ENGINE" (quote rc::decode-engine) (quote ((om-load-inputfun (quote input-funbox) "from engine" "SOL" nil) (om-load-inputfun (quote input-funbox) "bpm" "TEMPO" 60) (om-load-inputfunmenu1 (quote input-funmenu) "format" "OUTPUT" (quote rc::simple) (list (list "poly-list" (quote (quote rc::poly))) (list "voice-list" (quote (quote rc::voice))) (list "simple" (quote (quote rc::simple))))))) (om-make-point 112 318) nil nil nil nil 1) (om-load-boxcall (quote genfun) "VOICE-DOMAIN" (quote rc::voice-domain) (quote ((om-load-inputfun (quote input-funbox) "timesigns" "TIMESIGN-LIST" nil) (om-load-inputfun (quote input-funbox) "layer1" "RHYTHMCELL-LIST1" (list (list 1) (list 1/2) (list 1/4) (list 1/8))))) (om-make-point 105 101) nil nil nil nil 1) (om-load-boxcall (quote genfun) "PMC-ENGINE" (quote omcs::pmc-engine) (quote ((om-load-inputfun (quote input-funbox) "s-space" "S-SPACE" nil) (om-load-inputfun (quote input-funbox) "rules" "RULES" nil))) (om-make-point 103 257) nil nil nil nil 1) (om-load-boxcall (quote genfun) "DOMAINS->PMC" (quote rc::domains->pmc) (quote ((om-load-inputfun (quote input-funbox) "number of variables" "N-VAR" 5) (om-load-inputfun (quote input-funbox) "voice-domain" "VOICE0" nil))) (om-make-point 89 186) nil nil nil nil 1))) (quote ((5 0 3 0 nil 0) (1 0 3 2 nil 0) (2 0 4 1 nil 0) (6 0 5 0 nil 0) (0 0 6 0 nil 0) (4 0 6 1 nil 0))) nil 6.04))
