; OM File Header - Saved 2009/10/26 10:58:39
; (6.0011 :patc (om-make-point 58 126) (om-make-point 50 50) (om-make-point 500 400) "" 183 0 nil "2009/10/26 10:58:33")
; End File Header
(in-package :om)(load-lib-for (quote ("OMCS" "OMRC")))(setf *om-current-persistent* (om-load-patch1 "rc tutorial-03a" (quote ((om-load-boxcomment "comment" (om-make-point 599 56) (quote "IT IS POSSIBLE TO GET ERROR MESSAGES WHEN EVALUATING THIS PATCH. This is because there is a limit on how complex rhythms the poly object can notate. Since there is no limitation in the RC library, you will get an error message each time the answer is too complex for the poly object. If this happens, just evaluate the patch again.") "" (om-make-point 100 524) nil (om-make-color 0 0 0) (om-make-font "Geneva" 10 :family "Geneva" :style (quote (:plain)) :mode (quote nil))) (om-load-editor-box1 "POLY" (quote poly) (quote ((om-load-inputfun (quote input-funbox) "objs" "SELF" nil) (om-load-inputfun (quote input-funbox) "VOICES" "VOICES" (list (let ((newobj (when (find-class (quote voice) nil) (make-instance (quote voice) :tree (quote (2 (((4 4) (1 (1 (1 -2 1 1)) 1 1)) ((4 4) (1 (1 (1 2 1 1)) -1 1))))) :chords (load-obj-list-from-save (quote ((let ((thechord (make-instance (quote chord) :lmidic (quote (6000)) :ldur (quote (1000)) :lvel (quote (100)) :loffset (quote (0)) :lchan (quote (1))))) (load-port-info thechord (quote (0))) thechord) (let ((thechord (make-instance (quote chord) :lmidic (quote (6000)) :ldur (quote (200)) :lvel (quote (100)) :loffset (quote (0)) :lchan (quote (1))))) (load-port-info thechord (quote (0))) thechord) (let ((thechord (make-instance (quote chord) :lmidic (quote (6000)) :ldur (quote (200)) :lvel (quote (100)) :loffset (quote (0)) :lchan (quote (1))))) (load-port-info thechord (quote (0))) thechord) (let ((thechord (make-instance (quote chord) :lmidic (quote (6000)) :ldur (quote (200)) :lvel (quote (100)) :loffset (quote (0)) :lchan (quote (1))))) (load-port-info thechord (quote (0))) thechord) (let ((thechord (make-instance (quote chord) :lmidic (quote (6000)) :ldur (quote (1000)) :lvel (quote (100)) :loffset (quote (0)) :lchan (quote (1))))) (load-port-info thechord (quote (0))) thechord) (let ((thechord (make-instance (quote chord) :lmidic (quote (6000)) :ldur (quote (1000)) :lvel (quote (100)) :loffset (quote (0)) :lchan (quote (1))))) (load-port-info thechord (quote (0))) thechord) (let ((thechord (make-instance (quote chord) :lmidic (quote (6000)) :ldur (quote (1000)) :lvel (quote (100)) :loffset (quote (0)) :lchan (quote (1))))) (load-port-info thechord (quote (0))) thechord) (let ((thechord (make-instance (quote chord) :lmidic (quote (6000)) :ldur (quote (200)) :lvel (quote (100)) :loffset (quote (0)) :lchan (quote (1))))) (load-port-info thechord (quote (0))) thechord) (let ((thechord (make-instance (quote chord) :lmidic (quote (6000)) :ldur (quote (400)) :lvel (quote (100)) :loffset (quote (0)) :lchan (quote (1))))) (load-port-info thechord (quote (0))) thechord) (let ((thechord (make-instance (quote chord) :lmidic (quote (6000)) :ldur (quote (200)) :lvel (quote (100)) :loffset (quote (0)) :lchan (quote (1))))) (load-port-info thechord (quote (0))) thechord) (let ((thechord (make-instance (quote chord) :lmidic (quote (6000)) :ldur (quote (200)) :lvel (quote (100)) :loffset (quote (0)) :lchan (quote (1))))) (load-port-info thechord (quote (0))) thechord) (let ((thechord (make-instance (quote chord) :lmidic (quote (6000)) :ldur (quote (1000)) :lvel (quote (100)) :loffset (quote (0)) :lchan (quote (1))))) (load-port-info thechord (quote (0))) thechord)))) :tempo (quote ((1/4 60) nil)) :legato 100 :ties (quote (nil nil nil nil nil nil nil nil nil nil nil nil)))))) (load-port-info newobj (quote (((0) ((0) nil (0) (0)) (0) (0)) ((0) ((0) (0) (0) (0)) nil (0))))) (init-mus-color newobj (quote nil)) (set-extra-pairs newobj (quote nil)) (set-patch-pairs newobj (quote nil)) (set-tonalite newobj nil) newobj))))) (om-make-point 123 407) (om-make-point 526 115) (if (find-class (quote poly) nil) (let ((newobj (make-instance (quote poly) :voices (list (let ((newobj (when (find-class (quote voice) nil) (make-instance (quote voice) :tree (quote (9/2 (((4 4) (4)) ((3 4) (2 (1 (4 1.0 2 3)))) ((4 4) ((1 (1.0 4)) (1 (2.0 4 1.0 3)) 2.0)) ((3 4) (1.0 (1 (7.0 3)) (1 (1.0 4)))) ((4 4) (1.0 (1 (1.0 1 3)) (1 (4.0 4 1.0 1)) (1 (1.0 4 1.0 -4))))))) :chords (load-obj-list-from-save (quote ((let ((thechord (make-instance (quote chord) :lmidic (quote (6000)) :ldur (quote (2700)) :lvel (quote (100)) :loffset (quote (0)) :lchan (quote (1))))) (load-port-info thechord (quote (0))) thechord) (let ((thechord (make-instance (quote chord) :lmidic (quote (6000)) :ldur (quote (1350)) :lvel (quote (100)) :loffset (quote (0)) :lchan (quote (1))))) (load-port-info thechord (quote (0))) thechord) (let ((thechord (make-instance (quote chord) :lmidic (quote (6000)) :ldur (quote (270)) :lvel (quote (100)) :loffset (quote (0)) :lchan (quote (1))))) (load-port-info thechord (quote (0))) thechord) (let ((thechord (make-instance (quote chord) :lmidic (quote (6000)) :ldur (quote (135)) :lvel (quote (100)) :loffset (quote (0)) :lchan (quote (1))))) (load-port-info thechord (quote (0))) thechord) (let ((thechord (make-instance (quote chord) :lmidic (quote (6000)) :ldur (quote (202)) :lvel (quote (100)) :loffset (quote (0)) :lchan (quote (1))))) (load-port-info thechord (quote (0))) thechord) (let ((thechord (make-instance (quote chord) :lmidic (quote (6000)) :ldur (quote (540)) :lvel (quote (100)) :loffset (quote (0)) :lchan (quote (1))))) (load-port-info thechord (quote (0))) thechord) (let ((thechord (make-instance (quote chord) :lmidic (quote (6000)) :ldur (quote (270)) :lvel (quote (100)) :loffset (quote (0)) :lchan (quote (1))))) (load-port-info thechord (quote (0))) thechord) (let ((thechord (make-instance (quote chord) :lmidic (quote (6000)) :ldur (quote (202)) :lvel (quote (100)) :loffset (quote (0)) :lchan (quote (1))))) (load-port-info thechord (quote (0))) thechord) (let ((thechord (make-instance (quote chord) :lmidic (quote (6000)) :ldur (quote (202)) :lvel (quote (100)) :loffset (quote (0)) :lchan (quote (1))))) (load-port-info thechord (quote (0))) thechord) (let ((thechord (make-instance (quote chord) :lmidic (quote (6000)) :ldur (quote (540)) :lvel (quote (100)) :loffset (quote (0)) :lchan (quote (1))))) (load-port-info thechord (quote (0))) thechord) (let ((thechord (make-instance (quote chord) :lmidic (quote (6000)) :ldur (quote (135)) :lvel (quote (100)) :loffset (quote (0)) :lchan (quote (1))))) (load-port-info thechord (quote (0))) thechord) (let ((thechord (make-instance (quote chord) :lmidic (quote (6000)) :ldur (quote (405)) :lvel (quote (100)) :loffset (quote (0)) :lchan (quote (1))))) (load-port-info thechord (quote (0))) thechord) (let ((thechord (make-instance (quote chord) :lmidic (quote (6000)) :ldur (quote (270)) :lvel (quote (100)) :loffset (quote (0)) :lchan (quote (1))))) (load-port-info thechord (quote (0))) thechord) (let ((thechord (make-instance (quote chord) :lmidic (quote (6000)) :ldur (quote (68)) :lvel (quote (100)) :loffset (quote (0)) :lchan (quote (1))))) (load-port-info thechord (quote (0))) thechord) (let ((thechord (make-instance (quote chord) :lmidic (quote (6000)) :ldur (quote (270)) :lvel (quote (100)) :loffset (quote (0)) :lchan (quote (1))))) (load-port-info thechord (quote (0))) thechord)))) :tempo (quote ((1/4 88) nil)) :legato 99 :ties (quote (nil nil nil nil nil nil nil nil nil nil nil nil nil nil nil)))))) (load-port-info newobj (quote (((0)) ((0) ((0) (0) (0) (0))) (((0) (0)) ((0) (0) (0) (0)) (0)) ((0) ((0) (0)) ((0) (0))) ((0) ((0) (0) (0)) ((0) (0) (0) (0)) ((0) (0) (0) nil))))) (init-mus-color newobj (quote nil)) (set-extra-pairs newobj (quote nil)) (set-patch-pairs newobj (quote nil)) (set-tonalite newobj nil) newobj)) :from-file t))) (load-port-info newobj (quote ((((0)) ((0) ((0) (0) (0) (0))) (((0) (0)) ((0) (0) (0) (0)) (0)) ((0) ((0) (0)) ((0) (0))) ((0) ((0) (0) (0)) ((0) (0) (0) (0)) ((0) (0) (0) nil)))))) (init-mus-color newobj (quote nil)) (set-extra-pairs newobj (quote nil)) (set-patch-pairs newobj (quote nil)) (set-tonalite newobj nil) newobj)) nil nil (pairlis (quote (scale microplay obj-mode palette-mode winpos winsize mode grillestep notechancolor? zoom inport outport deltapict cmnpref staff fontsize approx show-stems)) (list nil nil 0 0 2621450 18350450 0 1000 nil 1 0 0 (om-make-point 0 0) (let ((newobj (make-instance (quote edition-values)))) (setf (paper-size newobj) (om-make-point 600 800)) (setf (top-margin newobj) 2) (setf (left-margin newobj) 1) (setf (right-margin newobj) 1) (setf (bottom-margin newobj) 1) (setf (orientation newobj) nil) (setf (scale newobj) nil) (setf (system-space newobj) (quote (1))) (setf (line-space newobj) 1) (setf (title newobj) nil) (setf (show-title? newobj) nil) (setf (show-page? newobj) nil) (setf (sheet-id newobj) nil) (setf (page-mode newobj) nil) newobj) (list (quote g)) 24 2 (quote t))) t nil nil nil) (om-load-boxcall (quote bastype) "aux2" (quote t) (quote nil) (om-make-point 369 78) (om-make-point 20 28) 1 "1" nil) (om-load-boxcall (quote bastype) "aux1" (quote t) (quote nil) (om-make-point 328 78) (om-make-point 20 28) 0 "0" nil) (om-load-boxcall (quote genfun) "R-EQLENGTH1" (quote rc::r-eqlength) (quote ((om-load-inputfun (quote input-funbox) "layernr" "LAYER1" 0) (om-load-inputfun (quote input-funbox) "layernr" "LAYER2" 1))) (om-make-point 326 118) nil nil nil nil 1) (om-load-boxcall (quote bastype) "aux11111" (quote t) (quote nil) (om-make-point 23 176) (om-make-point 26 28) 20 "20" nil) (om-load-boxcall (quote genfun) "DECODE-ENGINE1111" (quote rc::decode-engine) (quote ((om-load-inputfun (quote input-funbox) "from engine" "SOL" nil) (om-load-inputfun (quote input-funbox) "bpm" "TEMPO" 88) (om-load-inputfunmenu1 (quote input-funmenu) "format" "OUTPUT" (quote rc::voice) (list (list "poly-list" (quote (quote rc::poly))) (list "voice-list" (quote (quote rc::voice))) (list "simple" (quote (quote rc::simple))))))) (om-make-point 160 343) nil nil nil nil 1) (om-load-boxcall (quote genfun) "VOICE-DOMAIN1111" (quote rc::voice-domain) (quote ((om-load-inputfun (quote input-funbox) "timesigns" "TIMESIGN-LIST" nil) (om-load-inputfun (quote input-funbox) "layer1" "RHYTHMCELL-LIST1" (list (list 1) (list 1/2) (list 1/4) (list 1/8))))) (om-make-point 53 123) nil nil nil nil 1) (om-load-boxcall (quote genfun) "PMC-ENGINE1111" (quote omcs::pmc-engine) (quote ((om-load-inputfun (quote input-funbox) "s-space" "S-SPACE" nil) (om-load-inputfun (quote input-funbox) "rules" "RULES" nil))) (om-make-point 87 283) nil nil nil nil 1) (om-load-boxcall (quote genfun) "DOMAINS->PMC1111" (quote rc::domains->pmc) (quote ((om-load-inputfun (quote input-funbox) "number of variables" "N-VAR" 5) (om-load-inputfun (quote input-funbox) "voice-domain" "VOICE0" nil))) (om-make-point 37 208) nil nil nil nil 1) (om-load-boxcall (quote bastype) "aux" (quote t) (quote nil) (om-make-point 11 50) (om-make-point 110 28) (list (list 4 4) (list 3 4) (list 5 4)) "((4 4) (3 4) (5 4))" nil) (om-load-boxcall (quote genfun) "RULES->PMC1" (quote rc::rules->pmc) (quote ((om-load-inputfun (quote input-funbox) "rules" "VOICE0" nil))) (om-make-point 324 182) nil nil nil nil 1) (om-load-boxcall (quote bastype) "aux21211" (quote t) (quote nil) (om-make-point 91 82) (om-make-point 201 28) (list (list 1) (list 1/2) (list 1/3) (list 1/4) (list 1/8) (list 1/20)) "((1) (1/2) (1/3) (1/4) (1/8) (1/20))" nil))) (quote ((6 0 1 1 nil 0) (3 0 4 0 nil 0) (2 0 4 1 nil 0) (8 0 6 0 nil 0) (10 0 7 0 nil 0) (12 0 7 1 nil 0) (9 0 8 0 nil 0) (11 0 8 1 nil 0) (5 0 9 0 nil 0) (7 0 9 1 nil 0) (4 0 11 0 nil 0))) nil 6.04))
